<svg width="19" height="19" viewBox="0 0 19 19" fill="none" xmlns="http://www.w3.org/2000/svg">
<path d="M8.56689 1.57446C8.92714 0.808736 10.0172 0.808738 10.3774 1.57446L12.1353 5.31079C12.4459 5.97113 12.9863 6.496 13.6558 6.78638L17.3423 8.38501C18.145 8.73321 18.145 9.87079 17.3423 10.219L13.6558 11.8176C12.9863 12.108 12.4459 12.6329 12.1353 13.2932L10.3774 17.0295C10.0172 17.7953 8.92714 17.7953 8.56689 17.0295L6.80908 13.2932C6.49842 12.6329 5.95808 12.108 5.28857 11.8176L1.60205 10.219C0.799339 9.8708 0.799339 8.73321 1.60205 8.38501L5.28857 6.78638C5.95808 6.496 6.49842 5.97113 6.80908 5.31079L8.56689 1.57446Z" stroke="#1340FF" stroke-width="2"/>
</svg>
